<svg width="208" height="40" viewBox="0 0 208 40" fill="none" xmlns="http://www.w3.org/2000/svg">
<path d="M12.608 30.384C9.42933 30.384 6.944 29.4987 5.152 27.728C3.36 25.9573 2.464 23.4293 2.464 20.144V7.6H7.648V19.952C7.648 22.0853 8.08533 23.6213 8.96 24.56C9.83467 25.4987 11.0613 25.968 12.64 25.968C14.2187 25.968 15.4453 25.4987 16.32 24.56C17.1947 23.6213 17.632 22.0853 17.632 19.952V7.6H22.752V20.144C22.752 23.4293 21.856 25.9573 20.064 27.728C18.272 29.4987 15.7867 30.384 12.608 30.384ZM27.5228 30V12.784H32.2908V17.648L31.6188 16.24C32.1308 15.024 32.9521 14.1067 34.0828 13.488C35.2134 12.848 36.5894 12.528 38.2108 12.528V17.136C37.9974 17.1147 37.8054 17.104 37.6348 17.104C37.4641 17.0827 37.2828 17.072 37.0908 17.072C35.7254 17.072 34.6161 17.4667 33.7628 18.256C32.9308 19.024 32.5148 20.2293 32.5148 21.872V30H27.5228ZM51.3863 30.256C49.8716 30.256 48.5703 29.936 47.4823 29.296C46.3943 28.656 45.5623 27.6853 44.9863 26.384C44.4103 25.0613 44.1223 23.3973 44.1223 21.392C44.1223 19.3653 44.4209 17.7013 45.0183 16.4C45.6369 15.0987 46.4903 14.128 47.5783 13.488C48.6663 12.848 49.9356 12.528 51.3863 12.528C53.0076 12.528 54.4583 12.8907 55.7383 13.616C57.0396 14.3413 58.0636 15.3653 58.8103 16.688C59.5783 18.0107 59.9623 19.5787 59.9623 21.392C59.9623 23.184 59.5783 24.7413 58.8103 26.064C58.0636 27.3867 57.0396 28.4213 55.7383 29.168C54.4583 29.8933 53.0076 30.256 51.3863 30.256ZM41.2103 30V6.256H46.2023V16.272L45.8823 21.36L45.9783 26.48V30H41.2103ZM50.5223 26.16C51.3543 26.16 52.0903 25.968 52.7303 25.584C53.3916 25.2 53.9143 24.656 54.2983 23.952C54.7036 23.2267 54.9062 22.3733 54.9062 21.392C54.9062 20.3893 54.7036 19.536 54.2983 18.832C53.9143 18.128 53.3916 17.584 52.7303 17.2C52.0903 16.816 51.3543 16.624 50.5223 16.624C49.6903 16.624 48.9436 16.816 48.2823 17.2C47.6209 17.584 47.0983 18.128 46.7143 18.832C46.3303 19.536 46.1383 20.3893 46.1383 21.392C46.1383 22.3733 46.3303 23.2267 46.7143 23.952C47.0983 24.656 47.6209 25.2 48.2823 25.584C48.9436 25.968 49.6903 26.16 50.5223 26.16ZM73.5828 30V26.64L73.2628 25.904V19.888C73.2628 18.8213 72.9321 17.9893 72.2708 17.392C71.6308 16.7947 70.6388 16.496 69.2948 16.496C68.3774 16.496 67.4708 16.6453 66.5748 16.944C65.7001 17.2213 64.9534 17.6053 64.3348 18.096L62.5428 14.608C63.4814 13.9467 64.6121 13.4347 65.9348 13.072C67.2574 12.7093 68.6014 12.528 69.9668 12.528C72.5908 12.528 74.6281 13.1467 76.0788 14.384C77.5294 15.6213 78.2548 17.552 78.2548 20.176V30H73.5828ZM68.3348 30.256C66.9908 30.256 65.8388 30.032 64.8788 29.584C63.9188 29.1147 63.1828 28.4853 62.6708 27.696C62.1588 26.9067 61.9028 26.0213 61.9028 25.04C61.9028 24.016 62.1481 23.12 62.6388 22.352C63.1508 21.584 63.9508 20.9867 65.0388 20.56C66.1268 20.112 67.5454 19.888 69.2948 19.888H73.8708V22.8H69.8388C68.6654 22.8 67.8548 22.992 67.4068 23.376C66.9801 23.76 66.7668 24.24 66.7668 24.816C66.7668 25.456 67.0121 25.968 67.5028 26.352C68.0148 26.7147 68.7081 26.896 69.5828 26.896C70.4148 26.896 71.1614 26.704 71.8228 26.32C72.4841 25.9147 72.9641 25.328 73.2628 24.56L74.0308 26.864C73.6681 27.9733 73.0068 28.816 72.0468 29.392C71.0868 29.968 69.8494 30.256 68.3348 30.256ZM82.7728 30V12.784H87.5408V17.552L86.6448 16.112C87.2634 14.96 88.1488 14.0747 89.3008 13.456C90.4528 12.8373 91.7648 12.528 93.2368 12.528C94.6021 12.528 95.8181 12.8053 96.8848 13.36C97.9728 13.8933 98.8261 14.7253 99.4448 15.856C100.063 16.9653 100.373 18.3947 100.373 20.144V30H95.3808V20.912C95.3808 19.5253 95.0714 18.5013 94.4528 17.84C93.8554 17.1787 93.0021 16.848 91.8928 16.848C91.1034 16.848 90.3888 17.0187 89.7488 17.36C89.1301 17.68 88.6394 18.1813 88.2768 18.864C87.9354 19.5467 87.7648 20.4213 87.7648 21.488V30H82.7728ZM125.192 30.384C123.422 30.384 121.779 30.096 120.264 29.52C118.771 28.944 117.47 28.1333 116.36 27.088C115.272 26.0427 114.419 24.816 113.8 23.408C113.203 22 112.904 20.464 112.904 18.8C112.904 17.136 113.203 15.6 113.8 14.192C114.419 12.784 115.283 11.5573 116.392 10.512C117.502 9.46667 118.803 8.656 120.296 8.08C121.79 7.504 123.411 7.216 125.16 7.216C126.931 7.216 128.552 7.504 130.024 8.08C131.518 8.656 132.808 9.46667 133.896 10.512C135.006 11.5573 135.87 12.784 136.488 14.192C137.107 15.5787 137.416 17.1147 137.416 18.8C137.416 20.464 137.107 22.0107 136.488 23.44C135.87 24.848 135.006 26.0747 133.896 27.12C132.808 28.144 131.518 28.944 130.024 29.52C128.552 30.096 126.942 30.384 125.192 30.384ZM125.16 25.968C126.163 25.968 127.08 25.7973 127.912 25.456C128.766 25.1147 129.512 24.624 130.152 23.984C130.792 23.344 131.283 22.5867 131.624 21.712C131.987 20.8373 132.168 19.8667 132.168 18.8C132.168 17.7333 131.987 16.7627 131.624 15.888C131.283 15.0133 130.792 14.256 130.152 13.616C129.534 12.976 128.798 12.4853 127.944 12.144C127.091 11.8027 126.163 11.632 125.16 11.632C124.158 11.632 123.23 11.8027 122.376 12.144C121.544 12.4853 120.808 12.976 120.168 13.616C119.528 14.256 119.027 15.0133 118.664 15.888C118.323 16.7627 118.152 17.7333 118.152 18.8C118.152 19.8453 118.323 20.816 118.664 21.712C119.027 22.5867 119.518 23.344 120.136 23.984C120.776 24.624 121.523 25.1147 122.376 25.456C123.23 25.7973 124.158 25.968 125.16 25.968ZM151.52 30V26.64L151.2 25.904V19.888C151.2 18.8213 150.87 17.9893 150.208 17.392C149.568 16.7947 148.576 16.496 147.232 16.496C146.315 16.496 145.408 16.6453 144.512 16.944C143.638 17.2213 142.891 17.6053 142.272 18.096L140.48 14.608C141.419 13.9467 142.55 13.4347 143.872 13.072C145.195 12.7093 146.539 12.528 147.904 12.528C150.528 12.528 152.566 13.1467 154.016 14.384C155.467 15.6213 156.192 17.552 156.192 20.176V30H151.52ZM146.272 30.256C144.928 30.256 143.776 30.032 142.816 29.584C141.856 29.1147 141.12 28.4853 140.608 27.696C140.096 26.9067 139.84 26.0213 139.84 25.04C139.84 24.016 140.086 23.12 140.576 22.352C141.088 21.584 141.888 20.9867 142.976 20.56C144.064 20.112 145.483 19.888 147.232 19.888H151.808V22.8H147.776C146.603 22.8 145.792 22.992 145.344 23.376C144.918 23.76 144.704 24.24 144.704 24.816C144.704 25.456 144.95 25.968 145.44 26.352C145.952 26.7147 146.646 26.896 147.52 26.896C148.352 26.896 149.099 26.704 149.76 26.32C150.422 25.9147 150.902 25.328 151.2 24.56L151.968 26.864C151.606 27.9733 150.944 28.816 149.984 29.392C149.024 29.968 147.787 30.256 146.272 30.256ZM166.502 30.256C165.03 30.256 163.612 30.0853 162.246 29.744C160.902 29.3813 159.836 28.9333 159.046 28.4L160.71 24.816C161.5 25.3067 162.428 25.712 163.494 26.032C164.582 26.3307 165.649 26.48 166.694 26.48C167.846 26.48 168.657 26.3413 169.126 26.064C169.617 25.7867 169.862 25.4027 169.862 24.912C169.862 24.5067 169.67 24.208 169.286 24.016C168.924 23.8027 168.433 23.6427 167.814 23.536C167.196 23.4293 166.513 23.3227 165.766 23.216C165.041 23.1093 164.305 22.9707 163.558 22.8C162.812 22.608 162.129 22.3307 161.51 21.968C160.892 21.6053 160.39 21.1147 160.006 20.496C159.644 19.8773 159.462 19.0773 159.462 18.096C159.462 17.008 159.772 16.048 160.39 15.216C161.03 14.384 161.948 13.7333 163.142 13.264C164.337 12.7733 165.766 12.528 167.43 12.528C168.604 12.528 169.798 12.656 171.014 12.912C172.23 13.168 173.244 13.5413 174.054 14.032L172.39 17.584C171.558 17.0933 170.716 16.7627 169.862 16.592C169.03 16.4 168.22 16.304 167.43 16.304C166.321 16.304 165.51 16.4533 164.998 16.752C164.486 17.0507 164.23 17.4347 164.23 17.904C164.23 18.3307 164.412 18.6507 164.774 18.864C165.158 19.0773 165.66 19.248 166.278 19.376C166.897 19.504 167.569 19.6213 168.294 19.728C169.041 19.8133 169.788 19.952 170.534 20.144C171.281 20.336 171.953 20.6133 172.55 20.976C173.169 21.3173 173.67 21.7973 174.054 22.416C174.438 23.0133 174.63 23.8027 174.63 24.784C174.63 25.8507 174.31 26.8 173.67 27.632C173.03 28.4427 172.102 29.0827 170.886 29.552C169.692 30.0213 168.23 30.256 166.502 30.256ZM177.71 30V12.784H182.702V30H177.71ZM180.206 10.384C179.289 10.384 178.542 10.1173 177.966 9.584C177.39 9.05067 177.102 8.38933 177.102 7.6C177.102 6.81067 177.39 6.14933 177.966 5.616C178.542 5.08267 179.289 4.816 180.206 4.816C181.124 4.816 181.87 5.072 182.446 5.584C183.022 6.07467 183.31 6.71467 183.31 7.504C183.31 8.336 183.022 9.02933 182.446 9.584C181.892 10.1173 181.145 10.384 180.206 10.384ZM193.127 30.256C191.655 30.256 190.237 30.0853 188.871 29.744C187.527 29.3813 186.461 28.9333 185.671 28.4L187.335 24.816C188.125 25.3067 189.053 25.712 190.119 26.032C191.207 26.3307 192.274 26.48 193.319 26.48C194.471 26.48 195.282 26.3413 195.751 26.064C196.242 25.7867 196.487 25.4027 196.487 24.912C196.487 24.5067 196.295 24.208 195.911 24.016C195.549 23.8027 195.058 23.6427 194.439 23.536C193.821 23.4293 193.138 23.3227 192.391 23.216C191.666 23.1093 190.93 22.9707 190.183 22.8C189.437 22.608 188.754 22.3307 188.135 21.968C187.517 21.6053 187.015 21.1147 186.631 20.496C186.269 19.8773 186.087 19.0773 186.087 18.096C186.087 17.008 186.397 16.048 187.015 15.216C187.655 14.384 188.573 13.7333 189.767 13.264C190.962 12.7733 192.391 12.528 194.055 12.528C195.229 12.528 196.423 12.656 197.639 12.912C198.855 13.168 199.869 13.5413 200.679 14.032L199.015 17.584C198.183 17.0933 197.341 16.7627 196.487 16.592C195.655 16.4 194.845 16.304 194.055 16.304C192.946 16.304 192.135 16.4533 191.623 16.752C191.111 17.0507 190.855 17.4347 190.855 17.904C190.855 18.3307 191.037 18.6507 191.399 18.864C191.783 19.0773 192.285 19.248 192.903 19.376C193.522 19.504 194.194 19.6213 194.919 19.728C195.666 19.8133 196.413 19.952 197.159 20.144C197.906 20.336 198.578 20.6133 199.175 20.976C199.794 21.3173 200.295 21.7973 200.679 22.416C201.063 23.0133 201.255 23.8027 201.255 24.784C201.255 25.8507 200.935 26.8 200.295 27.632C199.655 28.4427 198.727 29.0827 197.511 29.552C196.317 30.0213 194.855 30.256 193.127 30.256Z" fill="#F1F1F1"/>
<rect x="203" y="25" width="5" height="5" rx="2" fill="#3B82F6"/>
</svg>
